<?xml version="1.0" encoding="UTF-8" standalone="no"?>
<svg width="90px" height="97px" viewBox="0 0 90 97" version="1.1" xmlns="http://www.w3.org/2000/svg" xmlns:xlink="http://www.w3.org/1999/xlink" xmlns:sketch="http://www.bohemiancoding.com/sketch/ns">
    <!-- Generator: Sketch 3.3.1 (12002) - http://www.bohemiancoding.com/sketch -->
    <title>Imported Layers</title>
    <desc>Created with Sketch.</desc>
    <defs></defs>
    <g id="logos" stroke="none" stroke-width="1" fill="none" fill-rule="evenodd" sketch:type="MSPage">
        <g id="Artboard-2" sketch:type="MSArtboardGroup" transform="translate(-179.000000, -3063.000000)">
            <g id="Imported-Layers" sketch:type="MSLayerGroup" transform="translate(178.897424, 3063.000000)">
                <path d="M45.1341818,25.4023932 L45.1341818,43.8978889 L89.7226364,70.6358974 L89.7226364,51.9820513 L45.1341818,25.4023932" id="Fill-1" fill="#F07432" sketch:type="MSShapeGroup"></path>
                <path d="M45.1341818,43.8978889 L0.545727273,70.6358974 L0.545727273,51.9820513 L45.1341818,25.4023932 L45.1341818,43.8978889" id="Fill-2" fill="#FB8F4A" sketch:type="MSShapeGroup"></path>
                <path d="M45.1341818,96.3367521 L0.545727273,70.6358974 L0.545727273,51.9820513 L45.1341818,77.682906 L45.1341818,96.3367521" id="Fill-3" fill="#F07432" sketch:type="MSShapeGroup"></path>
                <path d="M89.7226364,51.9820513 L45.1341818,77.682906 L45.1341818,96.3367521 L89.7226364,70.6358974 L89.7226364,51.9820513" id="Fill-4" fill="#F95330" sketch:type="MSShapeGroup"></path>
                <path d="M45.1341818,0.530598291 L45.1341818,19.026094 L89.7226364,45.7641026 L89.7226364,27.1102564 L45.1341818,0.530598291" id="Fill-5" fill="#D0D0CC" sketch:type="MSShapeGroup"></path>
                <path d="M45.1341818,19.026094 L0.545727273,45.7641026 L0.545727273,27.1102564 L45.1341818,0.530598291 L45.1341818,19.026094" id="Fill-6" fill="#FB8F4A" sketch:type="MSShapeGroup"></path>
                <path d="M45.1341818,71.4649573 L0.545727273,45.7641026 L0.545727273,27.1102564 L45.1341818,52.8111111 L45.1341818,71.4649573" id="Fill-7" fill="#CDCDCC" sketch:type="MSShapeGroup"></path>
                <path d="M89.7226364,27.1102564 L45.1341818,52.8111111 L45.1341818,71.4649573 L89.7226364,45.7641026 L89.7226364,27.1102564" id="Fill-8" fill="#E7E5E6" sketch:type="MSShapeGroup"></path>
            </g>
        </g>
    </g>
</svg>